<?xml version="1.0" encoding="utf-8"?>
<!-- Generator: Adobe Illustrator 25.0.1, SVG Export Plug-In . SVG Version: 6.00 Build 0)  -->
<svg version="1.1" id="Layer_1" xmlns="http://www.w3.org/2000/svg" xmlns:xlink="http://www.w3.org/1999/xlink" x="0px" y="0px"
	 viewBox="0 0 559 577" style="enable-background:new 0 0 559 577;" xml:space="preserve">
<style type="text/css">
	.st0{fill:url(#SVGID_1_);stroke:#C7C8E5;}
	.st1{fill:#D1D1E9;stroke:#C7C8E5;}
	.st2{fill:url(#SVGID_2_);stroke:#C7C8E5;}
	.st3{fill:#E6E7E8;stroke:#C7C8E5;}
	.st4{fill:url(#SVGID_3_);stroke:#C7C8E5;stroke-width:2;}
	.st5{fill:none;}
	.st6{font-family:'MyriadPro-Regular';}
	.st7{font-size:10px;}
	.st8{fill:#21409A;}
	.st9{font-size:12px;}
	.st10{fill:none;stroke:#21409A;stroke-width:2;}
	.st11{fill:none;stroke:#C7C7E3;stroke-width:2;}
	.st12{fill:none;stroke:#000000;stroke-width:2;}
</style>
<linearGradient id="SVGID_1_" gradientUnits="userSpaceOnUse" x1="139.6434" y1="242.1958" x2="407.5529" y2="242.1958">
	<stop  offset="0" style="stop-color:#FFFFFF"/>
	<stop  offset="0.2691" style="stop-color:#EBEBF6"/>
	<stop  offset="0.6986" style="stop-color:#D8D8ED"/>
	<stop  offset="1" style="stop-color:#D1D1E9"/>
</linearGradient>
<polyline class="st0" points="139.64,418.88 139.64,65.51 407.55,65.51 407.55,418.88 "/>
<path class="st1" d="M407.55,65.51c0,29.14-59.98,52.76-133.95,52.76c-73.99,0-133.96-23.62-133.96-52.76
	c0-29.13,59.97-52.75,133.96-52.75C347.58,12.76,407.55,36.38,407.55,65.51z"/>
<linearGradient id="SVGID_2_" gradientUnits="userSpaceOnUse" x1="139.6434" y1="440.3216" x2="407.5529" y2="440.3216">
	<stop  offset="0" style="stop-color:#FFFFFF"/>
	<stop  offset="0.2691" style="stop-color:#EBEBF6"/>
	<stop  offset="0.6986" style="stop-color:#D8D8ED"/>
	<stop  offset="1" style="stop-color:#D1D1E9"/>
</linearGradient>
<path class="st2" d="M407.55,413.95c0,29.13-59.98,52.75-133.95,52.75c-73.99,0-133.96-23.62-133.96-52.75"/>
<path class="st3" d="M332.26,420.01c0,13.95-26.26,25.25-58.66,25.25c-32.4,0-58.66-11.31-58.66-25.25
	c0-13.95,26.26-25.25,58.66-25.25C305.99,394.76,332.26,406.07,332.26,420.01z"/>
<path class="st3" d="M401.95,359.01c0,13.95-26.26,25.25-58.66,25.25c-32.4,0-58.66-11.31-58.66-25.25
	c0-13.95,26.26-25.25,58.66-25.25C375.68,333.76,401.95,345.07,401.95,359.01z"/>
<path class="st3" d="M261.95,359.01c0,13.95-26.26,25.25-58.66,25.25c-32.4,0-58.66-11.31-58.66-25.25
	c0-13.95,26.26-25.25,58.66-25.25C235.68,333.76,261.95,345.07,261.95,359.01z"/>
<rect x="252.84" y="144.67" class="st3" width="40.67" height="39.33"/>
<rect x="304.84" y="144.67" class="st3" width="40.67" height="39.33"/>
<rect x="356.84" y="144.67" class="st3" width="40.67" height="39.33"/>
<rect x="148.84" y="144.67" class="st3" width="40.67" height="39.33"/>
<rect x="200.84" y="144.67" class="st3" width="40.67" height="39.33"/>
<rect x="252.84" y="524.67" class="st3" width="40.67" height="39.33"/>
<rect x="316.84" y="524.67" class="st3" width="40.67" height="39.33"/>
<rect x="188.84" y="524.67" class="st3" width="40.67" height="39.33"/>
<rect x="165.84" y="216.1" class="st3" width="13.33" height="12.9"/>
<rect x="165.84" y="267.1" class="st3" width="13.33" height="12.9"/>
<rect x="165.84" y="284.1" class="st3" width="13.33" height="12.9"/>
<rect x="165.84" y="267.1" class="st3" width="13.33" height="12.9"/>
<rect x="184.84" y="233.1" class="st3" width="13.33" height="12.9"/>
<rect x="184.84" y="250.1" class="st3" width="13.33" height="12.9"/>
<rect x="267.73" y="216.1" class="st3" width="28.5" height="27.56"/>
<rect x="267.73" y="252.44" class="st3" width="28.5" height="27.56"/>
<rect x="349.73" y="269.44" class="st3" width="28.5" height="27.56"/>
<linearGradient id="SVGID_3_" gradientUnits="userSpaceOnUse" x1="142.1755" y1="304" x2="404.1755" y2="304">
	<stop  offset="0" style="stop-color:#FFFFFF"/>
	<stop  offset="0.2691" style="stop-color:#EBEBF6"/>
	<stop  offset="0.6986" style="stop-color:#D8D8ED"/>
	<stop  offset="1" style="stop-color:#D1D1E9"/>
</linearGradient>
<line class="st4" x1="142.18" y1="304" x2="404.18" y2="304"/>
<rect x="228.93" y="161.26" class="st5" width="86.76" height="13.24"/>
<text transform="matrix(1 0 0 1 254.1965 168.357)" class="st6 st7">rubrique</text>
<rect x="176.93" y="161.26" class="st5" width="86.76" height="13.24"/>
<text transform="matrix(1 0 0 1 202.1965 168.357)" class="st6 st7">rubrique</text>
<rect x="124.93" y="161.26" class="st5" width="86.76" height="13.24"/>
<text transform="matrix(1 0 0 1 150.1965 168.357)" class="st6 st7">rubrique</text>
<rect x="129.93" y="202.26" class="st5" width="86.76" height="13.24"/>
<text transform="matrix(1 0 0 1 162.8664 209.357)" class="st6 st7">carte</text>
<rect x="280.93" y="161.26" class="st5" width="86.76" height="13.24"/>
<text transform="matrix(1 0 0 1 306.1965 168.357)" class="st6 st7">rubrique</text>
<rect x="332.93" y="161.26" class="st5" width="86.76" height="13.24"/>
<text transform="matrix(1 0 0 1 358.1965 168.357)" class="st6 st7">rubrique</text>
<rect x="228.93" y="311.26" class="st5" width="86.76" height="13.24"/>
<text transform="matrix(1 0 0 1 237.5178 319.7769)" class="st8 st6 st9">Flux de travail</text>
<rect x="228.93" y="125.26" class="st5" width="86.76" height="13.24"/>
<text transform="matrix(1 0 0 1 249.3195 133.7769)" class="st8 st6 st9">Stockage</text>
<rect x="228.93" y="54.26" class="st5" width="86.76" height="13.24"/>
<text transform="matrix(1 0 0 1 257.5695 62.7769)" class="st8 st6 st9">CCMS</text>
<rect x="158.93" y="355" class="st5" width="86.76" height="13.24"/>
<text transform="matrix(1 0 0 1 185.9265 362.1006)" class="st6 st7">révision</text>
<rect x="299.93" y="355" class="st5" width="86.76" height="13.24"/>
<text transform="matrix(1 0 0 1 326.1765 362.1006)" class="st6 st7">création</text>
<path class="st3" d="M546.95,359.01c0,13.95-26.26,25.25-58.66,25.25c-32.4,0-58.66-11.31-58.66-25.25
	c0-13.95,26.26-25.25,58.66-25.25C520.68,333.76,546.95,345.07,546.95,359.01z"/>
<rect x="444.93" y="351.29" class="st5" width="86.76" height="25.65"/>
<text transform="matrix(1 0 0 1 447.6668 358.394)"><tspan x="0" y="0" class="st6 st7">outil de création ou </tspan><tspan x="5.09" y="12" class="st6 st7">d&apos;édition externe</tspan></text>
<rect x="229.93" y="404.38" class="st5" width="86.76" height="37.31"/>
<text transform="matrix(1 0 0 1 249.5218 423.48)" class="st6 st7">publication</text>
<rect x="165.93" y="534.8" class="st5" width="86.76" height="20.9"/>
<text transform="matrix(1 0 0 1 197.1364 541.8979)"><tspan x="0" y="0" class="st6 st7">Sortie</tspan><tspan x="3.75" y="12" class="st6 st7">PDF</tspan></text>
<rect x="229.93" y="534.8" class="st5" width="86.76" height="20.9"/>
<text transform="matrix(1 0 0 1 261.1364 541.8979)"><tspan x="0" y="0" class="st6 st7">Sortie</tspan><tspan x="0.05" y="12" class="st6 st7">HTML</tspan></text>
<rect x="293.93" y="534.8" class="st5" width="86.76" height="20.9"/>
<text transform="matrix(1 0 0 1 325.7014 541.8979)"><tspan x="0" y="0" class="st6 st7">Autre</tspan><tspan x="-0.08" y="12" class="st6 st7">sortie</tspan></text>
<g>
	<g>
		<line class="st10" x1="222.55" y1="514.63" x2="222.01" y2="515.01"/>
		<path class="st8" d="M214.6,520.21c2.58-3.74,5.35-8.99,6.39-13.21l1.99,7.32l6.21,4.35C224.87,518.23,218.99,519.06,214.6,520.21
			z"/>
	</g>
</g>
<g>
	<g>
		<line class="st10" x1="272.67" y1="511.67" x2="272.67" y2="512.33"/>
		<path class="st8" d="M272.64,521.39c-1.57-4.26-4.25-9.56-7.1-12.84l7.13,2.6l7.14-2.56
			C276.94,511.86,274.23,517.13,272.64,521.39z"/>
	</g>
</g>
<g>
	<g>
		<line class="st10" x1="289.7" y1="335.85" x2="290.3" y2="336.15"/>
		<path class="st8" d="M298.42,340.14c-4.52-0.46-10.45-0.37-14.65,0.74l5.46-5.26l0.83-7.54
			C291.74,332.09,295.3,336.84,298.42,340.14z"/>
	</g>
</g>
<path class="st10" d="M243,336c0,0,25-10,49,1"/>
<g>
	<g>
		<line class="st10" x1="258.3" y1="381.99" x2="257.7" y2="381.69"/>
		<path class="st8" d="M249.58,377.7c4.52,0.46,10.45,0.37,14.65-0.74l-5.46,5.26l-0.83,7.54
			C256.26,385.75,252.7,380.99,249.58,377.7z"/>
	</g>
</g>
<path class="st10" d="M305,381.84c0,0-25,10-49-1"/>
<line class="st10" x1="196" y1="378" x2="217" y2="400"/>
<line class="st10" x1="273" y1="439" x2="273" y2="517"/>
<line class="st10" x1="273" y1="478" x2="222" y2="515"/>
<g>
	<g>
		<line class="st10" x1="323.45" y1="514.63" x2="323.99" y2="515.01"/>
		<path class="st8" d="M331.4,520.21c-4.39-1.15-10.27-1.99-14.59-1.53l6.21-4.35l1.99-7.32
			C326.05,511.23,328.82,516.47,331.4,520.21z"/>
	</g>
</g>
<line class="st10" x1="273" y1="478" x2="324" y2="515"/>
<g>
	<g>
		<line class="st10" x1="214.75" y1="398.44" x2="215.24" y2="398.89"/>
		<path class="st8" d="M221.89,405.04c-4.2-1.73-9.91-3.34-14.26-3.47l6.74-3.49l2.95-6.99
			C217.79,395.42,219.84,400.99,221.89,405.04z"/>
	</g>
</g>
<polyline class="st11" points="162,223 151,223 151,290 162,290 "/>
<line class="st11" x1="151" y1="274" x2="162" y2="274"/>
<polyline class="st11" points="172,232 172,255 181,255 "/>
<line class="st11" x1="173" y1="240" x2="181" y2="240"/>
<polyline class="st11" points="263,229 249,229 249,270 263,270 "/>
<line class="st10" x1="213" y1="246" x2="245" y2="246"/>
<g>
	<g>
		<line class="st10" x1="213" y1="245" x2="212.33" y2="245"/>
		<path class="st8" d="M203.28,244.97c4.26-1.57,9.56-4.25,12.84-7.1l-2.6,7.13l2.56,7.14
			C212.81,249.28,207.53,246.57,203.28,244.97z"/>
	</g>
</g>
<line class="st10" x1="188" y1="290" x2="346" y2="290"/>
<g>
	<g>
		<line class="st10" x1="192" y1="290" x2="191.33" y2="290"/>
		<path class="st8" d="M182.28,289.97c4.26-1.57,9.56-4.25,12.84-7.1l-2.6,7.13l2.56,7.14
			C191.81,294.28,186.53,291.57,182.28,289.97z"/>
	</g>
</g>
<rect x="308.93" y="214.78" class="st5" width="91.76" height="56.69"/>
<text transform="matrix(1 0 0 1 312.3771 221.8843)"><tspan x="0" y="0" class="st6 st7">(cartes assemblées à </tspan><tspan x="-3.01" y="12" class="st6 st7">partir de rubriques ou </tspan><tspan x="10.83" y="24" class="st6 st7">d&apos;autres cartes)</tspan></text>
<rect x="218.42" y="76.02" class="st5" width="111.76" height="30.21"/>
<text transform="matrix(1 0 0 1 256.7178 83.125)"><tspan x="0" y="0" class="st6 st7">(gère les</tspan><tspan x="-17.77" y="12" class="st6 st7">documents XML)</tspan></text>
<rect x="4" y="190" class="st5" width="111.76" height="80"/>
<text transform="matrix(1 0 0 1 18.7734 197.1003)"><tspan x="0" y="0" class="st6 st7">Le CCMS stocke des </tspan><tspan x="-11.28" y="12" class="st6 st7">rubriques et des cartes et </tspan><tspan x="-9.94" y="24" class="st6 st7">gère certaines métadon</tspan><tspan x="89.08" y="24" class="st6 st7">-</tspan><tspan x="3.74" y="36" class="st6 st7">nées pour chaque </tspan><tspan x="22.99" y="48" class="st6 st7">rubrique</tspan></text>
<rect y="348" class="st5" width="111.76" height="80"/>
<text transform="matrix(1 0 0 1 10.6084 355.1003)"><tspan x="0" y="0" class="st6 st7">Le CCMS gère chaque </tspan><tspan x="-8.74" y="12" class="st6 st7">étape du cycle de vie d&apos;un </tspan><tspan x="23.6" y="24" class="st6 st7">document</tspan></text>
<polyline class="st12" points="133,124 123,124 123,298 132,298 "/>
<polyline class="st12" points="133,309 123,309 123,401.4 132,401.4 "/>
<line class="st12" x1="123" y1="212" x2="114" y2="212"/>
<line class="st12" x1="105" y1="365" x2="123" y2="365"/>
<rect x="-1" y="503" class="st5" width="111.76" height="80"/>
<text transform="matrix(1 0 0 1 4.2988 510.1003)"><tspan x="0" y="0" class="st6 st7">Le CCMS gère la généra</tspan><tspan x="98.09" y="0" class="st6 st7">-</tspan><tspan x="0.62" y="12" class="st6 st7">tion de sorties multiples</tspan></text>
<polyline class="st12" points="133,471 123,471 123,563.4 132,563.4 "/>
<line class="st12" x1="105" y1="519" x2="123" y2="519"/>
<g>
	<g>
		<line class="st10" x1="429.49" y1="361" x2="430.16" y2="361"/>
		<path class="st8" d="M439.21,360.97c-4.25,1.59-9.53,4.3-12.8,7.17l2.56-7.14l-2.6-7.12
			C429.65,356.72,434.95,359.41,439.21,360.97z"/>
	</g>
</g>
<g>
	<g>
		<line class="st10" x1="401.16" y1="361" x2="400.49" y2="361"/>
		<path class="st8" d="M391.44,360.97c4.26-1.57,9.56-4.25,12.84-7.1l-2.6,7.13l2.56,7.14
			C400.97,365.28,395.69,362.57,391.44,360.97z"/>
	</g>
</g>
<line class="st10" x1="398.16" y1="361" x2="431.16" y2="361"/>
</svg>
