<svg id="Layer_1" data-name="Layer 1" xmlns="http://www.w3.org/2000/svg" xmlns:xlink="http://www.w3.org/1999/xlink" viewBox="0 0 548 560"><defs><style>.cls-1,.cls-2,.cls-3,.cls-4,.cls-5{stroke:#c7c8e5;}.cls-1{fill:url(#linear-gradient);}.cls-2{fill:#d1d1e9;}.cls-3{fill:url(#linear-gradient-2);}.cls-4{fill:#e6e7e8;}.cls-10,.cls-11,.cls-5,.cls-8{stroke-width:2px;}.cls-5{fill:url(#linear-gradient-3);}.cls-6{font-size:10px;fill:#231f20;}.cls-6,.cls-7{font-family:Myriad Pro;}.cls-7{font-size:12px;}.cls-7,.cls-9{fill:#21409a;}.cls-10,.cls-11,.cls-8{fill:none;}.cls-8{stroke:#21409a;}.cls-10{stroke:#c7c7e3;}.cls-11{stroke:#000;}</style><linearGradient id="linear-gradient" x1="135.64" y1="233.2" x2="403.55" y2="233.2" gradientUnits="userSpaceOnUse"><stop offset="0" stop-color="#fff"/><stop offset="0.33" stop-color="#eaeaf5"/><stop offset="0.72" stop-color="#d8d8ec"/><stop offset="1" stop-color="#d1d1e9"/></linearGradient><linearGradient id="linear-gradient-2" x1="135.64" y1="431.32" x2="403.55" y2="431.32" xlink:href="#linear-gradient"/><linearGradient id="linear-gradient-3" x1="138.18" y1="295" x2="400.18" y2="295" xlink:href="#linear-gradient"/></defs><title>ccms</title><polyline class="cls-1" points="135.64 409.88 135.64 56.51 403.55 56.51 403.55 409.88"/><path class="cls-2" d="M403.55,56.51c0,29.14-60,52.76-134,52.76s-134-23.62-134-52.76,60-52.75,134-52.75S403.55,27.38,403.55,56.51Z"/><path class="cls-3" d="M403.55,404.95c0,29.13-60,52.75-134,52.75s-134-23.62-134-52.75"/><ellipse class="cls-4" cx="269.6" cy="411.01" rx="58.66" ry="25.25"/><ellipse class="cls-4" cx="339.29" cy="350.01" rx="58.66" ry="25.25"/><ellipse class="cls-4" cx="199.29" cy="350.01" rx="58.66" ry="25.25"/><rect class="cls-4" x="248.84" y="135.67" width="40.67" height="39.33"/><rect class="cls-4" x="300.84" y="135.67" width="40.67" height="39.33"/><rect class="cls-4" x="352.84" y="135.67" width="40.67" height="39.33"/><rect class="cls-4" x="144.84" y="135.67" width="40.67" height="39.33"/><rect class="cls-4" x="196.84" y="135.67" width="40.67" height="39.33"/><rect class="cls-4" x="248.84" y="515.67" width="40.67" height="39.33"/><rect class="cls-4" x="312.84" y="515.67" width="40.67" height="39.33"/><rect class="cls-4" x="184.84" y="515.67" width="40.67" height="39.33"/><rect class="cls-4" x="161.84" y="207.1" width="13.33" height="12.9"/><rect class="cls-4" x="161.84" y="258.1" width="13.33" height="12.9"/><rect class="cls-4" x="161.84" y="275.1" width="13.33" height="12.9"/><rect class="cls-4" x="161.84" y="258.1" width="13.33" height="12.9"/><rect class="cls-4" x="180.84" y="224.1" width="13.33" height="12.9"/><rect class="cls-4" x="180.84" y="241.1" width="13.33" height="12.9"/><rect class="cls-4" x="263.73" y="207.1" width="28.5" height="27.56"/><rect class="cls-4" x="263.73" y="243.44" width="28.5" height="27.56"/><rect class="cls-4" x="345.73" y="260.44" width="28.5" height="27.56"/><line class="cls-5" x1="138.18" y1="295" x2="400.18" y2="295"/><text class="cls-6" transform="translate(257.69 159.36)">t<tspan x="3.25" y="0">opic</tspan></text><text class="cls-6" transform="translate(205.69 159.36)">t<tspan x="3.25" y="0">opic</tspan></text><text class="cls-6" transform="translate(153.69 159.36)">t<tspan x="3.25" y="0">opic</tspan></text><text class="cls-6" transform="translate(159.89 200.36)">map</text><text class="cls-6" transform="translate(309.69 159.36)">t<tspan x="3.25" y="0">opic</tspan></text><text class="cls-6" transform="translate(361.69 159.36)">t<tspan x="3.25" y="0">opic</tspan></text><text class="cls-7" transform="translate(244.53 310.78)">W<tspan x="9.76" y="0">o</tspan><tspan x="16.34" y="0">r</tspan><tspan x="20.32" y="0">kfl</tspan><tspan x="32.22" y="0">o</tspan><tspan x="38.72" y="0">w</tspan></text><text class="cls-7" transform="translate(248.94 124.78)">S<tspan x="5.88" y="0">t</tspan><tspan x="9.78" y="0">o</tspan><tspan x="16.37" y="0">r</tspan><tspan x="20.23" y="0">age</tspan></text><text class="cls-7" transform="translate(253.7 53.78)">C<tspan x="6.71" y="0">CMS</tspan></text><text class="cls-6" transform="translate(184.46 353.1)">r<tspan x="3.17" y="0">eview</tspan></text><text class="cls-6" transform="translate(318.58 353.1)">autho<tspan x="24.68" y="0">r</tspan><tspan x="27.99" y="0">ing</tspan></text><ellipse class="cls-4" cx="484.29" cy="350.01" rx="58.66" ry="25.25"/><text class="cls-6" transform="translate(445.5 349.39)">e<tspan x="4.98" y="0">x</tspan><tspan x="9.74" y="0">t</tspan><tspan x="12.99" y="0">e</tspan><tspan x="18" y="0">r</tspan><tspan x="21.31" y="0">nal autho</tspan><tspan x="60.84" y="0">r</tspan><tspan x="64.15" y="0">ing</tspan><tspan x="9.13" y="12">or editing </tspan><tspan x="51.91" y="12">t</tspan><tspan x="55.16" y="12">ool</tspan></text><text class="cls-6"><tspan x="245.54" y="414.48">public</tspan><tspan x="271.61" y="414.48">a</tspan><tspan x="276.39" y="414.48">tion</tspan></text><text class="cls-6" transform="translate(196.89 532.9)">PDF<tspan x="-5.98" y="12">output</tspan></text><text class="cls-6" transform="translate(257.19 532.9)">HTML<tspan x="-2.28" y="12">output</tspan></text><text class="cls-6" transform="translate(322 532.9)">other<tspan x="-3.09" y="12">output</tspan></text><line class="cls-8" x1="218.55" y1="505.63" x2="218.01" y2="506.01"/><path class="cls-9" d="M210.6,511.21c2.58-3.74,5.35-9,6.39-13.21l2,7.32,6.21,4.35C220.87,509.23,215,510.06,210.6,511.21Z"/><line class="cls-8" x1="268.67" y1="502.67" x2="268.67" y2="503.33"/><path class="cls-9" d="M268.64,512.39c-1.57-4.26-4.25-9.56-7.1-12.84l7.13,2.6,7.14-2.56C272.94,502.86,270.23,508.13,268.64,512.39Z"/><line class="cls-8" x1="285.7" y1="326.85" x2="286.3" y2="327.15"/><path class="cls-9" d="M294.42,331.14c-4.52-.46-10.45-0.37-14.65.74l5.46-5.26,0.83-7.54C287.74,323.09,291.3,327.84,294.42,331.14Z"/><path class="cls-8" d="M239,327s25-10,49,1"/><line class="cls-8" x1="254.3" y1="372.99" x2="253.7" y2="372.69"/><path class="cls-9" d="M245.58,368.7c4.52,0.46,10.45.37,14.65-.74l-5.46,5.26-0.83,7.54C252.26,376.75,248.7,372,245.58,368.7Z"/><path class="cls-8" d="M301,372.84s-25,10-49-1"/><line class="cls-8" x1="192" y1="369" x2="213" y2="391"/><line class="cls-8" x1="269" y1="430" x2="269" y2="508"/><line class="cls-8" x1="269" y1="469" x2="218" y2="506"/><line class="cls-8" x1="319.45" y1="505.63" x2="319.99" y2="506.01"/><path class="cls-9" d="M327.4,511.21c-4.39-1.15-10.27-2-14.59-1.53l6.21-4.35,2-7.32C322,502.23,324.82,507.47,327.4,511.21Z"/><line class="cls-8" x1="269" y1="469" x2="320" y2="506"/><line class="cls-8" x1="210.75" y1="389.44" x2="211.24" y2="389.89"/><path class="cls-9" d="M217.89,396c-4.2-1.73-9.91-3.34-14.26-3.47l6.74-3.49,2.95-7C213.79,386.42,215.84,392,217.89,396Z"/><polyline class="cls-10" points="158 214 147 214 147 281 158 281"/><line class="cls-10" x1="147" y1="265" x2="158" y2="265"/><polyline class="cls-10" points="168 223 168 246 177 246"/><line class="cls-10" x1="169" y1="231" x2="177" y2="231"/><polyline class="cls-10" points="259 220 245 220 245 261 259 261"/><line class="cls-8" x1="209" y1="237" x2="241" y2="237"/><line class="cls-8" x1="209" y1="236" x2="208.33" y2="236"/><path class="cls-9" d="M199.28,236c4.26-1.57,9.56-4.25,12.84-7.1l-2.6,7.13,2.56,7.14C208.81,240.28,203.53,237.57,199.28,236Z"/><line class="cls-8" x1="184" y1="281" x2="342" y2="281"/><line class="cls-8" x1="188" y1="281" x2="187.33" y2="281"/><path class="cls-9" d="M178.28,281c4.26-1.57,9.56-4.25,12.84-7.1l-2.6,7.13,2.56,7.14C187.81,285.28,182.53,282.57,178.28,281Z"/><text class="cls-6" transform="translate(314.53 212.88)">(maps assembled <tspan x="7.21" y="12">f</tspan><tspan x="10.13" y="12">r</tspan><tspan x="13.3" y="12">om </tspan><tspan x="29.25" y="12">t</tspan><tspan x="32.5" y="12">opics or </tspan><tspan x="11.08" y="24">other maps)</tspan></text><text class="cls-6" transform="translate(239.54 74.13)">(manages XML <tspan x="5.71" y="12">docume</tspan><tspan x="40.18" y="12">n</tspan><tspan x="45.69" y="12">ts)</tspan></text><text class="cls-6" transform="translate(16.55 188.1)">C<tspan x="5.59" y="0">CMS s</tspan><tspan x="30.44" y="0">t</tspan><tspan x="33.69" y="0">o</tspan><tspan x="39.18" y="0">r</tspan><tspan x="42.35" y="0">es </tspan><tspan x="53.44" y="0">t</tspan><tspan x="56.69" y="0">opics </tspan><tspan x="-10.31" y="12">and maps and manages </tspan><tspan x="-9.7" y="24">c</tspan><tspan x="-5.28" y="24">e</tspan><tspan x="-0.27" y="24">r</tspan><tspan x="3.24" y="24">tain metad</tspan><tspan x="48.5" y="24">a</tspan><tspan x="53.28" y="24">ta about </tspan><tspan x="17.71" y="36">each </tspan><tspan x="39.69" y="36">t</tspan><tspan x="42.94" y="36">opic</tspan></text><text class="cls-6" transform="translate(8.6 346.1)">C<tspan x="5.59" y="0">CMS manages each </tspan><tspan x="-2.27" y="12">stage of a docume</tspan><tspan x="74.48" y="12">n</tspan><tspan x="79.99" y="12">t</tspan><tspan x="83.51" y="12">’</tspan><tspan x="84.86" y="12">s </tspan><tspan x="26.46" y="24">li</tspan><tspan x="31.16" y="24">f</tspan><tspan x="33.95" y="24">e</tspan><tspan x="38.96" y="24">c</tspan><tspan x="43.62" y="24">y</tspan><tspan x="48.23" y="24">cle</tspan></text><polyline class="cls-11" points="129 115 119 115 119 289 128 289"/><polyline class="cls-11" points="129 300 119 300 119 392.4 128 392.4"/><line class="cls-11" x1="119" y1="203" x2="110" y2="203"/><line class="cls-11" x1="101" y1="356" x2="119" y2="356"/><line class="cls-8" x1="425.49" y1="352" x2="426.16" y2="352"/><path class="cls-9" d="M435.21,352c-4.25,1.59-9.53,4.3-12.8,7.17L425,352l-2.6-7.12C425.65,347.72,430.95,350.41,435.21,352Z"/><line class="cls-8" x1="397.16" y1="352" x2="396.49" y2="352"/><path class="cls-9" d="M387.44,352c4.26-1.57,9.56-4.25,12.84-7.1l-2.6,7.13,2.56,7.14C397,356.28,391.69,353.57,387.44,352Z"/><line class="cls-8" x1="394.16" y1="352" x2="427.16" y2="352"/></svg>