<?xml version="1.0" encoding="utf-8"?>
<!-- Generator: Adobe Illustrator 25.0.1, SVG Export Plug-In . SVG Version: 6.00 Build 0)  -->
<svg version="1.1" id="Layer_1" xmlns="http://www.w3.org/2000/svg" xmlns:xlink="http://www.w3.org/1999/xlink" x="0px" y="0px"
	 viewBox="0 0 340.61 136.6" style="enable-background:new 0 0 340.61 136.6;" xml:space="preserve">
<style type="text/css">
	.Arched_x0020_Green{fill:url(#SVGID_1_);stroke:#FFFFFF;stroke-width:0.25;stroke-miterlimit:1;}
	.st0{fill:none;stroke:#21409A;stroke-width:2;}
	.st1{fill:none;}
	.st2{fill:#21409A;}
	.st3{font-family:'MyriadPro-Regular';}
	.st4{font-size:16px;}
	.st5{font-size:12px;}
	.st6{fill:#E6E7E8;}
	.st7{fill:#D1D1E9;}
	.st8{fill:#E6E7E8;stroke:#C7C8E5;}
	.st9{font-size:10px;}
</style>
<linearGradient id="SVGID_1_" gradientUnits="userSpaceOnUse" x1="211.0142" y1="651" x2="211.7213" y2="650.2929">
	<stop  offset="0" style="stop-color:#20AC4B"/>
	<stop  offset="0.9831" style="stop-color:#19361A"/>
</linearGradient>
<g>
	<path class="st0" d="M582.94-15.72"/>
</g>
<rect x="-26.54" y="106.88" class="st1" width="174.92" height="24.9"/>
<text transform="matrix(1 0 0 1 2.4162 118.2414)" class="st2 st3 st4">Fichier carte DITA </text>
<rect x="194.33" y="108.46" class="st1" width="174.92" height="24.9"/>
<text transform="matrix(1 0 0 1 225.7144 119.8174)" class="st2 st3 st4">Fichiers de sortie</text>
<text transform="matrix(1 0 0 1 115.8443 36.6675)" class="st3 st5">Transformation 1</text>
<text transform="matrix(1 0 0 1 115.8443 77.6675)" class="st3 st5">Transformation 2</text>
<g>
	<rect x="241.58" y="25.51" class="st6" width="86.48" height="34.25"/>
	<g>
		<rect x="237.5" y="21.96" class="st7" width="86.48" height="34.25"/>
		<rect x="237.14" y="34.88" class="st1" width="86.76" height="13.24"/>
		<text transform="matrix(1 0 0 1 270.4044 43.3984)" class="st2 st3 st5">PDF</text>
	</g>
</g>
<rect x="33.68" y="35.33" class="st8" width="40.67" height="57.33"/>
<rect x="28.35" y="29.33" class="st8" width="40.67" height="57.33"/>
<text transform="matrix(1 0 0 1 32.0127 42.333)"><tspan x="0" y="0" class="st3 st9">topicref</tspan><tspan x="0" y="12" class="st3 st9">topicref</tspan><tspan x="0" y="24" class="st3 st9">topicref</tspan><tspan x="0" y="36" class="st3 st9">topicref</tspan></text>
<g>
	<g>
		<line class="st0" x1="83.51" y1="40.17" x2="222.18" y2="40.17"/>
		<path class="st2" d="M231.23,40.17c-4.26,1.58-9.54,4.28-12.82,7.13l2.58-7.13l-2.58-7.13C221.69,35.89,226.98,38.59,231.23,40.17
			z"/>
	</g>
</g>
<g>
	<rect x="241.58" y="67.01" class="st6" width="86.48" height="34.25"/>
	<g>
		<rect x="237.5" y="63.46" class="st7" width="86.48" height="34.25"/>
		<rect x="237.14" y="76.38" class="st1" width="86.76" height="13.24"/>
		<text transform="matrix(1 0 0 1 245.6006 84.8984)" class="st2 st3 st5">Fichiers HTML</text>
	</g>
</g>
<g>
	<g>
		<line class="st0" x1="83.51" y1="81.67" x2="222.18" y2="81.67"/>
		<path class="st2" d="M231.23,81.67c-4.26,1.58-9.54,4.28-12.82,7.13l2.58-7.13l-2.58-7.13C221.69,77.39,226.98,80.09,231.23,81.67
			z"/>
	</g>
</g>
</svg>
